<svg width="99" height="17" viewBox="0 0 99 17" fill="none" xmlns="http://www.w3.org/2000/svg">
<path d="M4.75109 13.62C5.19109 13.62 5.55109 13.5867 5.83109 13.52C6.12443 13.44 6.35776 13.34 6.53109 13.22C6.70443 13.0867 6.82443 12.9333 6.89109 12.76C6.95776 12.5867 6.99109 12.3933 6.99109 12.18C6.99109 11.7267 6.77776 11.3533 6.35109 11.06C5.92443 10.7533 5.19109 10.4267 4.15109 10.08C3.69776 9.92 3.24443 9.74 2.79109 9.54C2.33776 9.32667 1.93109 9.06667 1.57109 8.76C1.21109 8.44 0.91776 8.06 0.691094 7.62C0.464427 7.16667 0.351094 6.62 0.351094 5.98C0.351094 5.34 0.471094 4.76667 0.711094 4.26C0.951094 3.74 1.29109 3.3 1.73109 2.94C2.17109 2.58 2.70443 2.30667 3.33109 2.12C3.95776 1.92 4.66443 1.82 5.45109 1.82C6.38443 1.82 7.19109 1.92 7.87109 2.12C8.55109 2.32 9.11109 2.54 9.55109 2.78L8.65109 5.24C8.26443 5.04 7.83109 4.86667 7.35109 4.72C6.88443 4.56 6.31776 4.48 5.65109 4.48C4.90443 4.48 4.36443 4.58667 4.03109 4.8C3.71109 5 3.55109 5.31333 3.55109 5.74C3.55109 5.99333 3.61109 6.20667 3.73109 6.38C3.85109 6.55333 4.01776 6.71333 4.23109 6.86C4.45776 6.99333 4.71109 7.12 4.99109 7.24C5.28443 7.34667 5.60443 7.46 5.95109 7.58C6.67109 7.84667 7.29776 8.11333 7.83109 8.38C8.36443 8.63333 8.80443 8.93333 9.15109 9.28C9.51109 9.62667 9.77776 10.0333 9.95109 10.5C10.1244 10.9667 10.2111 11.5333 10.2111 12.2C10.2111 13.4933 9.75776 14.5 8.85109 15.22C7.94443 15.9267 6.57776 16.28 4.75109 16.28C4.13776 16.28 3.58443 16.24 3.09109 16.16C2.59776 16.0933 2.15776 16.0067 1.77109 15.9C1.39776 15.7933 1.07109 15.68 0.791094 15.56C0.524427 15.44 0.29776 15.3267 0.111094 15.22L0.991094 12.74C1.40443 12.9667 1.91109 13.1733 2.51109 13.36C3.12443 13.5333 3.87109 13.62 4.75109 13.62ZM12.3117 2.86L15.2917 2.38V5.48H18.8717V7.96H15.2917V11.66C15.2917 12.2867 15.3984 12.7867 15.6117 13.16C15.8384 13.5333 16.2851 13.72 16.9517 13.72C17.2717 13.72 17.5984 13.6933 17.9317 13.64C18.2784 13.5733 18.5917 13.4867 18.8717 13.38L19.2917 15.7C18.9317 15.8467 18.5317 15.9733 18.0917 16.08C17.6517 16.1867 17.1117 16.24 16.4717 16.24C15.6584 16.24 14.9851 16.1333 14.4517 15.92C13.9184 15.6933 13.4917 15.3867 13.1717 15C12.8517 14.6 12.6251 14.12 12.4917 13.56C12.3717 13 12.3117 12.38 12.3117 11.7V2.86ZM30.7478 10.72C30.7478 11.5467 30.6278 12.3067 30.3878 13C30.1478 13.68 29.8011 14.2667 29.3478 14.76C28.8945 15.24 28.3478 15.6133 27.7078 15.88C27.0811 16.1467 26.3745 16.28 25.5878 16.28C24.8145 16.28 24.1078 16.1467 23.4678 15.88C22.8411 15.6133 22.3011 15.24 21.8478 14.76C21.3945 14.2667 21.0411 13.68 20.7878 13C20.5345 12.3067 20.4078 11.5467 20.4078 10.72C20.4078 9.89333 20.5345 9.14 20.7878 8.46C21.0545 7.78 21.4145 7.2 21.8678 6.72C22.3345 6.24 22.8811 5.86667 23.5078 5.6C24.1478 5.33333 24.8411 5.2 25.5878 5.2C26.3478 5.2 27.0411 5.33333 27.6678 5.6C28.3078 5.86667 28.8545 6.24 29.3078 6.72C29.7611 7.2 30.1145 7.78 30.3678 8.46C30.6211 9.14 30.7478 9.89333 30.7478 10.72ZM27.7078 10.72C27.7078 9.8 27.5211 9.08 27.1478 8.56C26.7878 8.02667 26.2678 7.76 25.5878 7.76C24.9078 7.76 24.3811 8.02667 24.0078 8.56C23.6345 9.08 23.4478 9.8 23.4478 10.72C23.4478 11.64 23.6345 12.3733 24.0078 12.92C24.3811 13.4533 24.9078 13.72 25.5878 13.72C26.2678 13.72 26.7878 13.4533 27.1478 12.92C27.5211 12.3733 27.7078 11.64 27.7078 10.72ZM32.5563 10.74C32.5563 9.98 32.6763 9.26667 32.9163 8.6C33.1696 7.92 33.5296 7.33333 33.9963 6.84C34.4629 6.33333 35.0296 5.93333 35.6963 5.64C36.3629 5.34667 37.1229 5.2 37.9763 5.2C38.5363 5.2 39.0496 5.25333 39.5163 5.36C39.9829 5.45333 40.4363 5.59333 40.8763 5.78L40.2563 8.16C39.9763 8.05333 39.6696 7.96 39.3363 7.88C39.0029 7.8 38.6296 7.76 38.2163 7.76C37.3363 7.76 36.6763 8.03333 36.2363 8.58C35.8096 9.12667 35.5963 9.84667 35.5963 10.74C35.5963 11.6867 35.7963 12.42 36.1963 12.94C36.6096 13.46 37.3229 13.72 38.3363 13.72C38.6963 13.72 39.0829 13.6867 39.4963 13.62C39.9096 13.5533 40.2896 13.4467 40.6363 13.3L41.0563 15.74C40.7096 15.8867 40.2763 16.0133 39.7563 16.12C39.2363 16.2267 38.6629 16.28 38.0363 16.28C37.0763 16.28 36.2496 16.14 35.5563 15.86C34.8629 15.5667 34.2896 15.1733 33.8363 14.68C33.3963 14.1867 33.0696 13.6067 32.8563 12.94C32.6563 12.26 32.5563 11.5267 32.5563 10.74ZM46.0363 9.28C46.3296 8.96 46.6296 8.62667 46.9362 8.28C47.2563 7.93333 47.5629 7.59333 47.8563 7.26C48.1496 6.91333 48.4229 6.58667 48.6763 6.28C48.9429 5.97333 49.1696 5.70667 49.3563 5.48H52.8963C52.1896 6.29333 51.4963 7.07333 50.8163 7.82C50.1496 8.55333 49.4163 9.31333 48.6163 10.1C49.0163 10.46 49.4296 10.8933 49.8563 11.4C50.2829 11.8933 50.6963 12.4067 51.0963 12.94C51.4963 13.4733 51.8629 14.0067 52.1963 14.54C52.5296 15.0733 52.8096 15.56 53.0363 16H49.6163C49.4029 15.6533 49.1563 15.2733 48.8763 14.86C48.6096 14.4333 48.3229 14.0133 48.0163 13.6C47.7096 13.1733 47.3829 12.7667 47.0363 12.38C46.7029 11.9933 46.3696 11.6667 46.0363 11.4V16H43.0563V0.959999L46.0363 0.48V9.28Z" fill="black"/>
<path d="M64.1383 16C63.2449 14.4133 62.2783 12.8467 61.2383 11.3C60.1983 9.75333 59.0916 8.29333 57.9183 6.92V16H54.8383V2.14H57.3783C57.8183 2.58 58.3049 3.12 58.8383 3.76C59.3716 4.4 59.9116 5.08667 60.4583 5.82C61.0183 6.54 61.5716 7.29333 62.1183 8.08C62.6649 8.85333 63.1783 9.6 63.6583 10.32V2.14H66.7583V16H64.1383ZM69.2555 10.82C69.2555 9.88667 69.3955 9.07333 69.6755 8.38C69.9688 7.67333 70.3488 7.08667 70.8155 6.62C71.2821 6.15333 71.8155 5.8 72.4155 5.56C73.0288 5.32 73.6555 5.2 74.2955 5.2C75.7888 5.2 76.9688 5.66 77.8355 6.58C78.7021 7.48667 79.1355 8.82667 79.1355 10.6C79.1355 10.7733 79.1288 10.9667 79.1155 11.18C79.1021 11.38 79.0888 11.56 79.0755 11.72H72.3155C72.3821 12.3333 72.6688 12.82 73.1755 13.18C73.6821 13.54 74.3621 13.72 75.2155 13.72C75.7621 13.72 76.2955 13.6733 76.8155 13.58C77.3488 13.4733 77.7821 13.3467 78.1155 13.2L78.5155 15.62C78.3555 15.7 78.1421 15.78 77.8755 15.86C77.6088 15.94 77.3088 16.0067 76.9755 16.06C76.6555 16.1267 76.3088 16.18 75.9355 16.22C75.5621 16.26 75.1888 16.28 74.8155 16.28C73.8688 16.28 73.0421 16.14 72.3355 15.86C71.6421 15.58 71.0621 15.2 70.5955 14.72C70.1421 14.2267 69.8021 13.6467 69.5755 12.98C69.3621 12.3133 69.2555 11.5933 69.2555 10.82ZM76.2555 9.68C76.2421 9.42667 76.1955 9.18 76.1155 8.94C76.0488 8.7 75.9355 8.48667 75.7755 8.3C75.6288 8.11333 75.4355 7.96 75.1955 7.84C74.9688 7.72 74.6821 7.66 74.3355 7.66C74.0021 7.66 73.7155 7.72 73.4755 7.84C73.2355 7.94667 73.0355 8.09333 72.8755 8.28C72.7155 8.46667 72.5888 8.68667 72.4955 8.94C72.4155 9.18 72.3555 9.42667 72.3155 9.68H76.2555ZM84.4552 13.86C85.0018 13.86 85.3885 13.8067 85.6152 13.7C85.8418 13.5933 85.9552 13.3867 85.9552 13.08C85.9552 12.84 85.8085 12.6333 85.5152 12.46C85.2218 12.2733 84.7752 12.0667 84.1752 11.84C83.7085 11.6667 83.2818 11.4867 82.8952 11.3C82.5218 11.1133 82.2018 10.8933 81.9352 10.64C81.6685 10.3733 81.4618 10.06 81.3152 9.7C81.1685 9.34 81.0952 8.90667 81.0952 8.4C81.0952 7.41333 81.4618 6.63333 82.1952 6.06C82.9285 5.48667 83.9352 5.2 85.2152 5.2C85.8552 5.2 86.4685 5.26 87.0552 5.38C87.6418 5.48667 88.1085 5.60667 88.4552 5.74L87.9352 8.06C87.5885 7.94 87.2085 7.83333 86.7952 7.74C86.3952 7.64667 85.9418 7.6 85.4352 7.6C84.5018 7.6 84.0352 7.86 84.0352 8.38C84.0352 8.5 84.0552 8.60667 84.0952 8.7C84.1352 8.79333 84.2152 8.88667 84.3352 8.98C84.4552 9.06 84.6152 9.15333 84.8152 9.26C85.0285 9.35333 85.2952 9.46 85.6152 9.58C86.2685 9.82 86.8085 10.06 87.2352 10.3C87.6618 10.5267 87.9952 10.78 88.2352 11.06C88.4885 11.3267 88.6618 11.6267 88.7552 11.96C88.8618 12.2933 88.9152 12.68 88.9152 13.12C88.9152 14.16 88.5218 14.9467 87.7352 15.48C86.9618 16.0133 85.8618 16.28 84.4352 16.28C83.5018 16.28 82.7218 16.2 82.0952 16.04C81.4818 15.88 81.0552 15.7467 80.8152 15.64L81.3152 13.22C81.8218 13.42 82.3418 13.58 82.8752 13.7C83.4085 13.8067 83.9352 13.86 84.4552 13.86ZM91.0422 2.86L94.0222 2.38V5.48H97.6022V7.96H94.0222V11.66C94.0222 12.2867 94.1289 12.7867 94.3422 13.16C94.5689 13.5333 95.0155 13.72 95.6822 13.72C96.0022 13.72 96.3289 13.6933 96.6622 13.64C97.0089 13.5733 97.3222 13.4867 97.6022 13.38L98.0222 15.7C97.6622 15.8467 97.2622 15.9733 96.8222 16.08C96.3822 16.1867 95.8422 16.24 95.2022 16.24C94.3889 16.24 93.7155 16.1333 93.1822 15.92C92.6489 15.6933 92.2222 15.3867 91.9022 15C91.5822 14.6 91.3555 14.12 91.2222 13.56C91.1022 13 91.0422 12.38 91.0422 11.7V2.86Z" fill="#FF9900"/>
</svg>
