<svg width="197" height="33" viewBox="0 0 197 33" fill="none" xmlns="http://www.w3.org/2000/svg">
<path d="M10.0022 27.24C10.8822 27.24 11.6022 27.1733 12.1622 27.04C12.7489 26.88 13.2155 26.68 13.5622 26.44C13.9089 26.1733 14.1489 25.8667 14.2822 25.52C14.4155 25.1733 14.4822 24.7867 14.4822 24.36C14.4822 23.4533 14.0555 22.7067 13.2022 22.12C12.3489 21.5067 10.8822 20.8533 8.80219 20.16C7.89552 19.84 6.98885 19.48 6.08219 19.08C5.17552 18.6533 4.36219 18.1333 3.64219 17.52C2.92219 16.88 2.33552 16.12 1.88219 15.24C1.42885 14.3333 1.20219 13.24 1.20219 11.96C1.20219 10.68 1.44219 9.53333 1.92219 8.52C2.40219 7.48 3.08219 6.6 3.96219 5.88C4.84219 5.16 5.90885 4.61333 7.16219 4.24C8.41552 3.84 9.82885 3.64 11.4022 3.64C13.2689 3.64 14.8822 3.84 16.2422 4.24C17.6022 4.64 18.7222 5.08 19.6022 5.56L17.8022 10.48C17.0289 10.08 16.1622 9.73333 15.2022 9.44C14.2689 9.12 13.1355 8.96 11.8022 8.96C10.3089 8.96 9.22885 9.17333 8.56219 9.6C7.92219 10 7.60219 10.6267 7.60219 11.48C7.60219 11.9867 7.72219 12.4133 7.96219 12.76C8.20219 13.1067 8.53552 13.4267 8.96219 13.72C9.41552 13.9867 9.92219 14.24 10.4822 14.48C11.0689 14.6933 11.7089 14.92 12.4022 15.16C13.8422 15.6933 15.0955 16.2267 16.1622 16.76C17.2289 17.2667 18.1089 17.8667 18.8022 18.56C19.5222 19.2533 20.0555 20.0667 20.4022 21C20.7489 21.9333 20.9222 23.0667 20.9222 24.4C20.9222 26.9867 20.0155 29 18.2022 30.44C16.3889 31.8533 13.6555 32.56 10.0022 32.56C8.77552 32.56 7.66885 32.48 6.68219 32.32C5.69552 32.1867 4.81552 32.0133 4.04219 31.8C3.29552 31.5867 2.64219 31.36 2.08219 31.12C1.54885 30.88 1.09552 30.6533 0.722188 30.44L2.48219 25.48C3.30885 25.9333 4.32219 26.3467 5.52219 26.72C6.74885 27.0667 8.24219 27.24 10.0022 27.24ZM25.1234 5.72L31.0834 4.76V10.96H38.2434V15.92H31.0834V23.32C31.0834 24.5733 31.2968 25.5733 31.7234 26.32C32.1768 27.0667 33.0701 27.44 34.4034 27.44C35.0434 27.44 35.6968 27.3867 36.3634 27.28C37.0568 27.1467 37.6834 26.9733 38.2434 26.76L39.0834 31.4C38.3634 31.6933 37.5634 31.9467 36.6834 32.16C35.8034 32.3733 34.7234 32.48 33.4434 32.48C31.8168 32.48 30.4701 32.2667 29.4034 31.84C28.3368 31.3867 27.4834 30.7733 26.8434 30C26.2034 29.2 25.7501 28.24 25.4834 27.12C25.2434 26 25.1234 24.76 25.1234 23.4V5.72ZM61.9956 21.44C61.9956 23.0933 61.7556 24.6133 61.2756 26C60.7956 27.36 60.1023 28.5333 59.1956 29.52C58.289 30.48 57.1956 31.2267 55.9156 31.76C54.6623 32.2933 53.249 32.56 51.6756 32.56C50.129 32.56 48.7156 32.2933 47.4356 31.76C46.1823 31.2267 45.1023 30.48 44.1956 29.52C43.289 28.5333 42.5823 27.36 42.0756 26C41.569 24.6133 41.3156 23.0933 41.3156 21.44C41.3156 19.7867 41.569 18.28 42.0756 16.92C42.609 15.56 43.329 14.4 44.2356 13.44C45.169 12.48 46.2623 11.7333 47.5156 11.2C48.7956 10.6667 50.1823 10.4 51.6756 10.4C53.1956 10.4 54.5823 10.6667 55.8356 11.2C57.1156 11.7333 58.209 12.48 59.1156 13.44C60.0223 14.4 60.729 15.56 61.2356 16.92C61.7423 18.28 61.9956 19.7867 61.9956 21.44ZM55.9156 21.44C55.9156 19.6 55.5423 18.16 54.7956 17.12C54.0756 16.0533 53.0356 15.52 51.6756 15.52C50.3156 15.52 49.2623 16.0533 48.5156 17.12C47.769 18.16 47.3956 19.6 47.3956 21.44C47.3956 23.28 47.769 24.7467 48.5156 25.84C49.2623 26.9067 50.3156 27.44 51.6756 27.44C53.0356 27.44 54.0756 26.9067 54.7956 25.84C55.5423 24.7467 55.9156 23.28 55.9156 21.44ZM65.6125 21.48C65.6125 19.96 65.8525 18.5333 66.3325 17.2C66.8392 15.84 67.5592 14.6667 68.4925 13.68C69.4258 12.6667 70.5592 11.8667 71.8925 11.28C73.2258 10.6933 74.7458 10.4 76.4525 10.4C77.5725 10.4 78.5992 10.5067 79.5325 10.72C80.4658 10.9067 81.3725 11.1867 82.2525 11.56L81.0125 16.32C80.4525 16.1067 79.8392 15.92 79.1725 15.76C78.5058 15.6 77.7592 15.52 76.9325 15.52C75.1725 15.52 73.8525 16.0667 72.9725 17.16C72.1192 18.2533 71.6925 19.6933 71.6925 21.48C71.6925 23.3733 72.0925 24.84 72.8925 25.88C73.7192 26.92 75.1458 27.44 77.1725 27.44C77.8925 27.44 78.6658 27.3733 79.4925 27.24C80.3192 27.1067 81.0792 26.8933 81.7725 26.6L82.6125 31.48C81.9192 31.7733 81.0525 32.0267 80.0125 32.24C78.9725 32.4533 77.8258 32.56 76.5725 32.56C74.6525 32.56 72.9992 32.28 71.6125 31.72C70.2258 31.1333 69.0792 30.3467 68.1725 29.36C67.2925 28.3733 66.6392 27.2133 66.2125 25.88C65.8125 24.52 65.6125 23.0533 65.6125 21.48ZM92.5725 18.56C93.1592 17.92 93.7592 17.2533 94.3725 16.56C95.0125 15.8667 95.6258 15.1867 96.2125 14.52C96.7992 13.8267 97.3458 13.1733 97.8525 12.56C98.3858 11.9467 98.8392 11.4133 99.2125 10.96H106.293C104.879 12.5867 103.493 14.1467 102.133 15.64C100.799 17.1067 99.3325 18.6267 97.7325 20.2C98.5325 20.92 99.3592 21.7867 100.213 22.8C101.066 23.7867 101.893 24.8133 102.693 25.88C103.493 26.9467 104.226 28.0133 104.893 29.08C105.559 30.1467 106.119 31.12 106.573 32H99.7325C99.3058 31.3067 98.8125 30.5467 98.2525 29.72C97.7192 28.8667 97.1458 28.0267 96.5325 27.2C95.9192 26.3467 95.2658 25.5333 94.5725 24.76C93.9058 23.9867 93.2392 23.3333 92.5725 22.8V32H86.6125V1.92L92.5725 0.959999V18.56Z" fill="white"/>
<path d="M128.777 32C126.99 28.8267 125.057 25.6933 122.977 22.6C120.897 19.5067 118.683 16.5867 116.337 13.84V32H110.177V4.28H115.257C116.137 5.16 117.11 6.24 118.177 7.52C119.243 8.8 120.323 10.1733 121.417 11.64C122.537 13.08 123.643 14.5867 124.737 16.16C125.83 17.7067 126.857 19.2 127.817 20.64V4.28H134.017V32H128.777ZM139.011 21.64C139.011 19.7733 139.291 18.1467 139.851 16.76C140.438 15.3467 141.198 14.1733 142.131 13.24C143.064 12.3067 144.131 11.6 145.331 11.12C146.558 10.64 147.811 10.4 149.091 10.4C152.078 10.4 154.438 11.32 156.171 13.16C157.904 14.9733 158.771 17.6533 158.771 21.2C158.771 21.5467 158.758 21.9333 158.731 22.36C158.704 22.76 158.678 23.12 158.651 23.44H145.131C145.264 24.6667 145.838 25.64 146.851 26.36C147.864 27.08 149.224 27.44 150.931 27.44C152.024 27.44 153.091 27.3467 154.131 27.16C155.198 26.9467 156.064 26.6933 156.731 26.4L157.531 31.24C157.211 31.4 156.784 31.56 156.251 31.72C155.718 31.88 155.118 32.0133 154.451 32.12C153.811 32.2533 153.118 32.36 152.371 32.44C151.624 32.52 150.878 32.56 150.131 32.56C148.238 32.56 146.584 32.28 145.171 31.72C143.784 31.16 142.624 30.4 141.691 29.44C140.784 28.4533 140.104 27.2933 139.651 25.96C139.224 24.6267 139.011 23.1867 139.011 21.64ZM153.011 19.36C152.984 18.8533 152.891 18.36 152.731 17.88C152.598 17.4 152.371 16.9733 152.051 16.6C151.758 16.2267 151.371 15.92 150.891 15.68C150.438 15.44 149.864 15.32 149.171 15.32C148.504 15.32 147.931 15.44 147.451 15.68C146.971 15.8933 146.571 16.1867 146.251 16.56C145.931 16.9333 145.678 17.3733 145.491 17.88C145.331 18.36 145.211 18.8533 145.131 19.36H153.011ZM169.41 27.72C170.504 27.72 171.277 27.6133 171.73 27.4C172.184 27.1867 172.41 26.7733 172.41 26.16C172.41 25.68 172.117 25.2667 171.53 24.92C170.944 24.5467 170.05 24.1333 168.85 23.68C167.917 23.3333 167.064 22.9733 166.29 22.6C165.544 22.2267 164.904 21.7867 164.37 21.28C163.837 20.7467 163.424 20.12 163.13 19.4C162.837 18.68 162.69 17.8133 162.69 16.8C162.69 14.8267 163.424 13.2667 164.89 12.12C166.357 10.9733 168.37 10.4 170.93 10.4C172.21 10.4 173.437 10.52 174.61 10.76C175.784 10.9733 176.717 11.2133 177.41 11.48L176.37 16.12C175.677 15.88 174.917 15.6667 174.09 15.48C173.29 15.2933 172.384 15.2 171.37 15.2C169.504 15.2 168.57 15.72 168.57 16.76C168.57 17 168.61 17.2133 168.69 17.4C168.77 17.5867 168.93 17.7733 169.17 17.96C169.41 18.12 169.73 18.3067 170.13 18.52C170.557 18.7067 171.09 18.92 171.73 19.16C173.037 19.64 174.117 20.12 174.97 20.6C175.824 21.0533 176.49 21.56 176.97 22.12C177.477 22.6533 177.824 23.2533 178.01 23.92C178.224 24.5867 178.33 25.36 178.33 26.24C178.33 28.32 177.544 29.8933 175.97 30.96C174.424 32.0267 172.224 32.56 169.37 32.56C167.504 32.56 165.944 32.4 164.69 32.08C163.464 31.76 162.61 31.4933 162.13 31.28L163.13 26.44C164.144 26.84 165.184 27.16 166.25 27.4C167.317 27.6133 168.37 27.72 169.41 27.72ZM182.584 5.72L188.544 4.76V10.96H195.704V15.92H188.544V23.32C188.544 24.5733 188.758 25.5733 189.184 26.32C189.638 27.0667 190.531 27.44 191.864 27.44C192.504 27.44 193.158 27.3867 193.824 27.28C194.518 27.1467 195.144 26.9733 195.704 26.76L196.544 31.4C195.824 31.6933 195.024 31.9467 194.144 32.16C193.264 32.3733 192.184 32.48 190.904 32.48C189.278 32.48 187.931 32.2667 186.864 31.84C185.798 31.3867 184.944 30.7733 184.304 30C183.664 29.2 183.211 28.24 182.944 27.12C182.704 26 182.584 24.76 182.584 23.4V5.72Z" fill="#FF9900"/>
</svg>
